<?xml version="1.0" standalone="no"?>
<!DOCTYPE svg PUBLIC "-//W3C//DTD SVG 20010904//EN"
 "http://www.w3.org/TR/2001/REC-SVG-20010904/DTD/svg10.dtd">
<svg version="1.0" xmlns="http://www.w3.org/2000/svg"
 width="355.000000pt" height="87.000000pt" viewBox="0 0 355.000000 87.000000"
 preserveAspectRatio="xMidYMid meet">

<g transform="translate(0.000000,87.000000) scale(0.100000,-0.100000)"
fill="#ffffff" stroke="none">
<path d="M460 860 c-104 -22 -213 -102 -251 -185 -40 -87 -15 -162 85 -260 34
-33 74 -76 88 -95 93 -123 -19 -264 -182 -229 -76 17 -114 72 -89 131 6 15 14
28 18 28 3 1 19 11 34 24 l28 23 -38 25 c-65 43 -78 43 -108 4 -56 -74 -52
-156 13 -228 78 -87 226 -119 319 -70 131 68 187 192 137 297 -10 22 -51 74
-90 115 -99 104 -124 143 -124 195 0 54 26 87 93 122 66 33 183 45 193 19 10
-27 -5 -64 -43 -107 l-36 -40 28 -29 c48 -50 91 -36 116 37 28 82 8 187 -41
213 -29 15 -99 20 -150 10z"/>
<path d="M1316 758 c-3 -7 -7 -33 -10 -58 -4 -25 -16 -78 -28 -118 -19 -66
-23 -72 -42 -65 -12 5 -41 8 -66 8 -79 0 -150 -71 -190 -189 -25 -78 -74 -156
-96 -156 -14 0 -15 7 -9 47 3 27 15 82 26 125 10 42 19 85 19 96 0 20 -61 82
-81 82 -14 0 -26 -36 -39 -120 -15 -104 -77 -230 -112 -230 -15 0 -8 63 16
165 22 89 23 102 10 127 -16 30 -72 65 -84 51 -14 -17 -52 -303 -45 -345 8
-46 44 -88 75 -88 33 0 77 27 96 60 l18 29 12 -28 c30 -71 101 -77 156 -12
l31 38 34 -38 c18 -20 44 -39 57 -41 30 -6 75 12 100 40 l18 21 33 -34 c47
-51 86 -48 141 9 l42 44 13 -24 c36 -67 119 -75 173 -15 l18 20 33 -34 c40
-43 80 -46 124 -9 37 31 65 79 111 193 28 68 40 87 58 89 21 3 20 0 -15 -74
-50 -104 -51 -164 -5 -205 18 -16 42 -29 55 -29 23 0 87 34 99 53 5 8 15 4 30
-10 36 -32 63 -43 111 -43 39 0 49 5 72 32 25 30 27 36 21 98 -20 203 -20 199
5 252 l23 50 -32 29 c-57 51 -69 41 -143 -116 -86 -185 -93 -199 -113 -223
-24 -27 -46 -29 -46 -3 0 10 25 66 55 124 62 119 68 156 30 181 -25 17 -27 16
-74 -23 -57 -48 -64 -50 -51 -16 12 33 -3 67 -40 88 l-28 17 -20 -58 c-13 -38
-16 -65 -11 -80 6 -17 -1 -45 -30 -112 -45 -103 -76 -150 -98 -150 -12 0 -14
7 -9 33 4 17 10 55 13 83 5 47 3 52 -22 72 -20 16 -23 22 -11 22 22 0 20 28
-6 80 -26 51 -62 67 -125 55 -50 -9 -124 -84 -148 -151 -48 -131 -84 -194
-112 -194 -28 0 -7 97 81 384 20 65 34 127 31 137 -8 23 -62 69 -81 69 -8 0
-16 -6 -18 -12z m-97 -312 c28 -33 -50 -230 -102 -257 -16 -9 -23 -8 -34 7
-18 25 -16 61 7 137 30 97 95 154 129 113z m425 -8 c20 -28 20 -38 1 -38 -10
0 -15 -10 -15 -33 0 -44 -55 -153 -87 -174 -24 -16 -26 -16 -40 3 -11 14 -13
34 -9 73 16 134 105 234 150 169z m566 -244 c0 -47 -58 -56 -81 -13 -14 28 6
52 38 44 27 -6 28 -1 8 54 -8 23 -11 49 -8 58 7 18 42 -101 43 -143z"/>
<path d="M2436 748 c-3 -13 -10 -47 -16 -77 -6 -30 -29 -120 -51 -200 -27 -98
-42 -176 -46 -237 -6 -89 -5 -92 18 -107 13 -9 33 -17 44 -19 17 -3 20 3 22
42 7 121 42 213 97 259 20 17 20 13 0 -100 -20 -105 -13 -151 26 -191 42 -41
74 -37 126 16 l42 44 22 -30 c45 -61 110 -66 161 -12 25 27 39 31 39 11 0 -22
35 -47 73 -54 30 -4 40 0 75 31 39 35 41 36 51 18 8 -15 57 -42 76 -42 1 0 5
41 9 92 5 80 10 99 38 146 33 53 86 111 76 82 -3 -8 -13 -58 -23 -111 -20
-111 -11 -165 32 -198 35 -28 65 -26 103 6 59 49 130 194 109 219 -20 24 -36
15 -53 -30 -10 -25 -35 -64 -56 -88 l-39 -43 -1 35 c0 19 10 79 22 133 24 109
20 137 -23 169 -24 18 -29 18 -60 5 -19 -8 -42 -23 -52 -34 -18 -20 -18 -20
-48 8 -17 16 -41 29 -53 29 -20 0 -23 -8 -35 -89 -16 -114 -78 -251 -114 -251
-10 0 -4 101 9 133 4 11 -5 27 -24 47 -19 18 -25 30 -16 30 33 0 2 98 -40 126
-34 22 -103 15 -145 -15 -40 -29 -84 -94 -105 -154 -23 -69 -50 -119 -80 -146
l-26 -24 0 39 c0 21 10 83 22 136 25 109 19 137 -33 163 -23 12 -31 12 -63 -4
-20 -11 -36 -16 -36 -12 0 4 11 45 25 91 14 46 25 91 25 101 0 20 -64 79 -85
79 -8 0 -17 -10 -19 -22z m514 -307 c14 -27 13 -41 -5 -41 -11 0 -15 -11 -15
-39 0 -75 -91 -204 -123 -172 -34 34 7 197 64 249 28 27 65 28 79 3z"/>
</g>
</svg>
